<?xml version="1.0" encoding="utf-8"?>
<!-- Generator: Adobe Illustrator 24.3.0, SVG Export Plug-In . SVG Version: 6.00 Build 0)  -->
<svg version="1.1" id="Layer_1" xmlns="http://www.w3.org/2000/svg" xmlns:xlink="http://www.w3.org/1999/xlink" x="0px" y="0px"
	 viewBox="0 0 1603.65 385.23" style="enable-background:new 0 0 1603.65 385.23;" xml:space="preserve">
<style type="text/css">
	.st0{fill:#2080C3;}
	.st1{fill:#7EBA28;}
</style>
<path class="st0" d="M1071.9,0.12l-16.37,16.37c9.23-0.01,18.47-0.01,27.7,0l16.38-16.38C1090.36,0.11,1081.12,0.11,1071.9,0.12z
	 M686.83,385.19h27.7l16.46-16.46h-27.7L686.83,385.19z"/>
<path class="st1" d="M18.32,326.82c-4.65,23.76,9.97,41.44,34.15,41.9c1.33,0.02,2.67,0.01,4,0.01h646.82l-16.46,16.46
	c-210.58,0-421.14-0.01-631.71,0.04c-6.71,0-13.32-0.53-19.72-2.41c-25.16-7.39-40.35-32.02-33.92-57.54
	c6.57-26.06,14.74-51.73,22.43-77.51c19.18-64.3,38.56-128.54,57.7-192.85c10.47-35.17,36.17-54.81,72.82-54.81
	C323.85,0.1,493.27,0.22,662.69,0.2c136.4-0.02,272.8-0.05,409.21-0.08l-16.37,16.37c-251.82-0.02-503.64-0.02-755.47-0.02
	c-49.26,0-98.52-0.04-147.78,0.15c-25.53,0.11-46.12,15.71-53.54,39.96C94.76,69.61,90.7,82.61,86.8,95.66
	C66.23,164.38,45.68,233.1,25.17,301.84C22.7,310.11,19.97,318.37,18.32,326.82z"/>
<path class="st0" d="M1603.03,56.53c-2.55,16.15-8.5,31.4-13.1,46.99c-22.51,76.1-45.25,152.14-67.91,228.2
	c-10.09,33.87-35.56,52.99-71.95,53.22c-46.93,0.3-93.86,0.17-140.79,0.17c-186.06,0.02-372.12,0.01-558.18,0.01v0.07h-36.57
	l16.46-16.46h20.46v0.03c200.37,0,400.74,0,601.12-0.01c32.28,0,64.57-0.07,96.85-0.1c29.57-0.02,50.32-17.63,56.85-43.64
	c4.85-19.31,11.22-38.23,16.95-57.32c20.35-67.77,40.7-135.54,61.14-203.28c1.36-4.51,2.4-9.01,2.53-13.68
	c0.49-16.82-9.34-29.19-25.78-33.13c-5.63-1.35-11.24-1.09-16.87-1.09c-153.67-0.01-307.34-0.02-461.01-0.02l16.38-16.38
	C1246.86,0.07,1394.14,0.03,1541.4,0c7.65,0,15.26-0.16,22.87,1.34C1590.32,6.46,1607.18,30.23,1603.03,56.53z"/>
<path class="st0" d="M258.18,138.81c-0.19-4.03,1.93-7.58,2.76-11.42c2.52-11.7-2.04-19.29-13.68-20.95
	c-14.37-2.06-27.96-0.27-38.47,11.35c-3.89,4.29-6.38,9.25-7.46,14.97c-1.3,6.93,0.78,12.42,6.42,16.63
	c6.21,4.63,13.37,7.36,20.49,10.14c11.44,4.48,23.19,8.19,34.21,13.74c24.27,12.21,29.49,24.2,21.73,50.18
	c-8.36,27.98-26.46,47.1-53.18,58.37c-20.96,8.84-42.99,11.15-65.44,10.84c-13.65-0.18-27.23-0.86-40.43-5.02
	c-21.77-6.86-29.73-20.12-25.43-42.51c1.51-7.87,4.22-15.37,6.67-22.95c0.83-2.57,1.82-5.09,5.29-4.98
	c1.99,0.06,3.99-0.06,5.99-0.06c14.24-0.01,28.49,0,42.45,0c1.07,3.35-0.28,5.4-0.94,7.57c-0.87,2.86-2,5.66-2.67,8.56
	c-4.06,17.54,2.47,25.91,20.57,26.58c9.44,0.35,18.6-0.86,27.24-4.86c10.96-5.08,17.95-13.51,20.64-25.33
	c1.63-7.17-0.55-13.16-6.39-17.66c-4.78-3.69-10.23-6.16-15.82-8.35c-11.75-4.6-23.71-8.79-35.17-14.04
	c-26.17-12-32.8-28.98-22.2-56c11.03-28.15,31.17-46.92,60.11-55.37c26.62-7.77,53.79-7.96,80.99-2.81
	c1.63,0.31,3.24,0.73,4.82,1.22c22.89,7.16,30.59,20.92,24.8,44.27c-4.65,18.75-4.65,18.77-23.96,18.77
	c-10.64,0-21.29-0.04-31.93-0.11C259.57,139.6,258.97,139.14,258.18,138.81z"/>
<path class="st0" d="M474.98,153.91c-1.62-14.7-9.81-23.59-24.29-26.51c-6.9-1.39-13.79-1.43-20.83-0.81
	c-14.83,1.3-27.37,7.61-38.97,16.39c-0.63-0.64-1.27-1.28-1.9-1.91c-0.22-3.31,2.4-6.18,1.48-10.72c-11.47,0-22.99-0.15-34.5,0.04
	c-16.21,0.26-12.52-2.12-18.04,12.6c-23.56,62.86-46.91,125.79-70.3,188.72c-1.01,2.71-3.09,5.24-1.55,9.5
	c13.55,0,27.47-0.31,41.36,0.15c5.77,0.18,8.27-2.1,10.05-7.18c5.95-16.95,12.18-33.8,18.47-50.62c1.12-2.98,1.25-6.63,4.83-8.85
	c6.07,13.38,17.7,17.15,31.03,17.73c27.52,1.21,49.14-10.05,65.14-31.97c19.59-26.83,30.08-57.57,37.1-89.68
	C475.28,165.22,475.6,159.57,474.98,153.91z M422.22,173.94c-0.38,2.22-0.78,5.87-1.64,9.41c-4.17,17.16-10.41,33.6-17.7,49.65
	c-3.31,7.29-7.46,14.1-13.24,19.78c-6.52,6.4-14.28,9.61-23.48,8.68c-7.63-0.78-11.96-5.17-12.73-12.88
	c-0.51-5.01,0.15-9.93,1.55-14.78c4.8-16.63,10.67-32.87,17.77-48.64c3.44-7.63,8-14.55,14.49-20.04
	c6.06-5.13,12.88-8.08,20.97-7.74C418.34,157.81,422.58,162.33,422.22,173.94z"/>
<path class="st1" d="M1373.49,131.14c1.11,3.8-0.35,5.85-1.14,7.97c-17.32,46.78-34.66,93.56-52.11,140.29
	c-3.49,9.34-7.35,18.53-12.55,27.13c-10.73,17.77-26.23,28.76-46.3,33.61c-18.05,4.36-36.18,4.95-54.43,1.53
	c-5.26-0.98-10.31-2.66-14.87-5.52c-10.79-6.76-14.94-23.97-8.49-34.7c1.21-2.02,2.92-2.5,5.02-2.45
	c11.98,0.24,23.96,0.47,35.94,0.69c2.95,0.06,3.66,1.5,3.79,4.43c0.5,11.11,3.46,13.58,14.58,13.08c7.75-0.35,14.18-3.53,19.18-9.32
	c9.16-10.59,12.88-23.6,15.37-37.64c-2.82,2.04-5.62,4.12-8.47,6.13c-11.59,8.13-24.52,12.21-38.58,10.7
	c-22.57-2.43-29.3-14.18-28.69-34.28c0.19-6.26,1.24-12.62,2.86-18.68c6.71-25.14,15.48-49.51,29.9-71.4
	c10.72-16.27,24.48-28.86,43.95-34c7.88-2.08,15.87-2.1,23.77-0.83c9.39,1.51,14.12,5.73,22.92,18.72c1.27,0.03,1.59-1.07,1.72-1.85
	c1.99-11.89,9.26-15.03,20.52-13.77C1355.88,131.91,1364.59,131.14,1373.49,131.14z M1312.61,173.97
	c1.04-14.33-9.67-17.57-19.31-15.48c-4.97,1.08-9.17,3.76-12.81,7.29c-4.33,4.2-7.83,9.02-10.59,14.37
	c-8.09,15.68-14.32,32.11-18.87,49.14c-1.19,4.44-1.91,9.18-1.81,13.76c0.22,10.51,7.21,15.5,17.4,13.11
	c8.94-2.1,15.55-7.61,20.42-14.92c12.86-19.28,19.88-41,25.29-63.3C1312.64,176.66,1312.53,175.29,1312.61,173.97z"/>
<path class="st1" d="M1050.7,161.74c-4.2,11.43-7.96,21.32-11.43,31.31c-1.52,4.39-4.92,3.74-8.17,3.74
	c-20.97,0.04-41.94,0.04-62.91,0.06c-2.66,0-5.33,0.07-7.99,0.01c-3.05-0.06-4.86,1.28-5.97,4.18c-6.07,15.83-12.3,31.6-17.41,47.78
	c-0.17,0.55,0.18,1.27,0.52,3.26c29.22,0,58.68,0,89.75,0c-3.75,12.67-8.28,23.19-12.52,33.8c-0.73,1.82-2.44,2.13-4.11,2.24
	c-1.99,0.13-3.99,0.1-5.99,0.1c-40.61-0.01-81.22,0-121.83-0.05c-10.86-0.01-10.79-0.07-7.08-10.09
	c23.44-63.25,46.94-126.48,71.51-189.3c3.91-10,1.09-9.58,14.17-9.59c37.95-0.01,75.9,0,113.84,0c3.26,0,6.53,0,10.56,0
	c-2.73,12.11-8.03,22.13-11.62,32.73c-1.08,3.2-4.42,2.4-6.97,2.42c-10.98,0.08-21.97,0.05-32.95,0.05
	c-13.65,0-27.3,0.13-40.94-0.11c-4.33-0.07-6.66,1.41-8.13,5.51c-4.15,11.59-8.7,23.03-12.94,34.58c-2.28,6.19-1.98,6.7,4.91,6.79
	c21.3,0.29,42.61,0.39,63.91,0.56C1043.56,161.76,1046.19,161.74,1050.7,161.74z"/>
<path class="st1" d="M1121.52,287.92c-2.45-4.94,1.78-8.37,0.7-12.99c-3.71,0.67-5.91,3.68-8.61,5.6
	c-13.63,9.72-28.63,13.65-45.24,11.41c-14.27-1.92-21.91-9.51-24.18-23.62c-1.73-10.82,0.44-21.29,3.38-31.46
	c6.18-21.4,13.78-42.32,23.98-62.19c5.49-10.71,11.89-20.81,20.64-29.2c14.78-14.17,32.35-20.49,52.82-18.18
	c10.46,1.18,16.57,5.59,24.23,17.38c2.68-1.73,2.95-4.72,3.91-7.27c6.46-17.08,12.95-34.15,19.25-51.29
	c1.37-3.73,2.79-6.32,7.52-6.22c12.61,0.27,25.23,0.09,37.58,0.09c2.33,4.09-0.2,6.99-1.27,9.88
	c-14.69,39.58-29.59,79.07-44.3,118.64c-8.92,23.99-17.79,48-26.25,72.15c-2.01,5.74-4.88,7.62-10.8,7.38
	C1143.63,287.6,1132.35,287.92,1121.52,287.92z M1092.26,244.02c-0.26,14.59,5.35,19.4,17.96,17.3c5.09-0.85,9.29-3.45,13.02-6.87
	c5.45-5,9.66-10.97,12.88-17.57c8.45-17.34,14.69-35.51,19.8-54.07c0.87-3.15,0.98-6.57,0.99-9.87
	c0.05-10.56-5.91-15.93-16.37-14.86c-6.54,0.67-11.95,3.79-16.59,8.3c-3.85,3.74-6.74,8.21-9.19,12.94
	c-9.5,18.36-15.95,37.88-21.51,57.71C1092.46,239.87,1092.4,242.93,1092.26,244.02z"/>
<path class="st0" d="M529.17,291.83c-11.01,0.42-21.94-0.07-32.5-3.69c-17.23-5.91-25.29-17.03-24.84-35.28
	c0.15-5.94,0.83-12.02,2.35-17.75c5.53-20.94,12.72-41.28,23.85-60.02c17.21-28.98,42.58-44.79,76.14-47.96
	c14.38-1.36,28.58-1.22,42.61,2.22c22.62,5.55,33.3,20.74,29.31,43.55c-4.74,27.08-14.07,52.75-29.01,75.93
	c-17.44,27.07-43.14,40.58-74.94,42.95C537.83,292.11,533.49,291.83,529.17,291.83z M523.35,245.43
	c-0.24,12.68,4.56,17.71,15.32,18.11c6.95,0.26,13.04-2.03,18.67-5.84c5.94-4.02,10.05-9.66,13.24-15.92
	c10.27-20.17,17.61-41.5,24.43-63.02c0.79-2.51,1.15-5.21,1.35-7.85c0.67-8.71-3.61-14.05-12.17-15.09
	c-8.96-1.09-17.12,0.9-24.24,6.72c-6.04,4.94-10.51,11.06-13.92,17.98c-9.12,18.53-15.89,37.95-21.38,57.82
	C523.87,241.2,523.57,244.2,523.35,245.43z"/>
<path class="st1" d="M1486.75,233.86c-6.34,17.6-15.89,32.12-30.83,42.38c-23.9,16.42-50.58,19.6-78.24,13.3
	c-17.18-3.91-24.01-14.34-23.88-31.94c0.08-11.14,3.28-21.65,6.56-32.11c6.79-21.62,14.95-42.65,27.79-61.54
	c25.01-36.79,66.91-41.12,96.27-34.16c15.92,3.78,23.87,14.85,24.08,31.23c0.16,12.91-3.96,24.89-8.08,36.84
	c-2.05,5.95-2.5,13.53-7.2,17.17c-4.81,3.71-12.24,1.22-18.51,1.27c-19.63,0.16-39.27,0.23-58.9-0.05
	c-5.77-0.08-9.18,1.19-10.83,7.39c-2.21,8.34-5.69,16.38-6.42,25.06c-1.03,12.16,4.83,17.34,16.89,15.23
	c11.96-2.1,20.16-9.84,24.04-20.38c3.5-9.51,8.83-11.64,17.82-10.74C1466.78,233.76,1476.41,232.28,1486.75,233.86z M1417.77,191.16
	c13.75,0,25.92-0.03,38.08,0.02c2.64,0.01,4.5-1.02,5.34-3.49c2.13-6.25,4.4-12.52,4.8-19.14c0.48-7.8-3.81-12.27-11.7-12.95
	c-9.71-0.84-17.4,3.02-23.55,10.24C1424.89,172.7,1421.5,180.87,1417.77,191.16z"/>
<path class="st0" d="M790.5,160.11c3.63-9.89,6.72-18.24,9.76-26.6c0.92-2.52,2.63-3.69,5.3-3.5c0.66,0.05,1.36-0.14,1.99,0.01
	c13.59,3.02,19.7-3.97,22.85-16.17c1.9-7.35,5.35-14.29,7.84-21.51c1.14-3.3,2.9-4.74,6.48-4.71c14.6,0.14,29.2,0.06,45.52,0.06
	c-5.03,14.2-9.72,27.42-14.89,42.03c8.08,0.16,15.2,0.21,22.31,0.48c6.16,0.23,6.46,0.74,4.74,6.42c-0.19,0.63-0.51,1.23-0.75,1.85
	c-2.64,6.79-3.6,15.38-8.39,19.89c-5.03,4.73-13.98,1.51-21.19,1.57c-5.23,0.04-8.5,1.08-10.47,6.6
	c-8.96,25.02-18.35,49.89-27.57,74.82c-0.46,1.24-0.82,2.53-1.17,3.81c-2.73,9.92-0.22,13.3,10.26,14c3.61,0.24,7.29-0.7,11.52,0.87
	c-2.09,9.29-5.91,17.97-9.32,26.79c-0.86,2.24-2.68,2.77-4.78,2.76c-15.92-0.04-31.91,2.06-47.7-1.55c-2.9-0.66-5.81-1.46-8.53-2.63
	c-6.84-2.95-10.11-8.14-9.66-15.77c0.32-5.41,1.93-10.44,3.75-15.42c9.89-27.14,19.85-54.26,29.79-81.38
	c0.8-2.18,1.57-4.37,2.37-6.56c1.53-4.2,0.28-6.31-4.4-6.18C801.56,160.21,796.94,160.11,790.5,160.11z"/>
<path class="st0" d="M632.71,288.1c0.53-6.24,2.77-10.01,4.26-14c16.81-44.75,33.61-89.51,50.55-134.22
	c3.53-9.31,1.26-9.12,13.45-9.15c12.53-0.03,25.07-0.01,38-0.01c0.49,7.08-4.58,11.97-3.99,18.27c4.11-0.49,5.75-3.7,8.19-5.66
	c13.09-10.48,27.55-17.28,44.66-17.12c7.72,0.07,8.17,0.7,5.64,8.04c-3.03,8.79-6.21,17.54-9.5,26.24
	c-2.82,7.45-2.95,7.58-10.63,6.73c-6.68-0.74-13.28-0.46-19.87,0.57c-17.42,2.72-30.23,11.51-36.59,28.43
	c-6.66,17.73-13.17,35.51-19.77,53.26c-4.05,10.9-8.14,21.79-12.23,32.68c-1.18,3.14-2.25,6.06-6.69,6
	C663.29,287.99,648.37,288.1,632.71,288.1z"/>
</svg>
